<?xml version="1.0" encoding="UTF-8" standalone="no"?>
<svg
   id="LOGO"
   viewBox="0 0 112 100"
   version="1.1"
   sodipodi:docname="HyperCurrent_ICON.svg"
   width="112"
   height="100"
   inkscape:version="1.2.2 (b0a84865, 2022-12-01)"
   xmlns:inkscape="http://www.inkscape.org/namespaces/inkscape"
   xmlns:sodipodi="http://sodipodi.sourceforge.net/DTD/sodipodi-0.dtd"
   xmlns="http://www.w3.org/2000/svg"
   xmlns:svg="http://www.w3.org/2000/svg">
  <sodipodi:namedview
     id="namedview72"
     pagecolor="#ffffff"
     bordercolor="#000000"
     borderopacity="0.25"
     inkscape:showpageshadow="2"
     inkscape:pageopacity="0.0"
     inkscape:pagecheckerboard="0"
     inkscape:deskcolor="#d1d1d1"
     showgrid="false"
     inkscape:zoom="2.09"
     inkscape:cx="49.282297"
     inkscape:cy="25.358852"
     inkscape:window-width="1567"
     inkscape:window-height="1122"
     inkscape:window-x="213"
     inkscape:window-y="72"
     inkscape:window-maximized="0"
     inkscape:current-layer="LOGO"
     showguides="false" />
  <defs
     id="defs63">
    <style
       id="style61">.cls-1{fill:#009cb6;}.cls-2{fill:#144372;}</style>
  </defs>
  <g
     id="g537"
     inkscape:label="HC"
     transform="matrix(1.4259658,0,0,1.4259658,14.531162,28.989275)">
    <polygon
       class="cls-1"
       points="60.31,7.14 33.36,7.14 33.36,26.94 58.56,26.94 58.56,23.31 37,23.31 37,9.83 38.75,9.83 38.75,21.55 60.31,21.55 60.31,28.69 31.61,28.69 31.61,5.39 58.56,5.39 58.56,1.75 31.61,1.75 31.61,0 60.31,0 "
       id="polygon65" />
    <path
       class="cls-2"
       d="m 27.4,3.65 v 8.09 h 1.75 V 5.4 h 3.64 V 30.6 H 29.15 V 14.43 h -9.43 a 2.45,2.45 0 1 0 0,1.75 h 7.68 v 16.17 h 7.14 V 3.65 Z m -10,12.49 a 0.84,0.84 0 1 1 0.84,-0.84 0.85,0.85 0 0 1 -0.8,0.84 z"
       transform="translate(-5.85,-3.65)"
       id="path67" />
    <path
       class="cls-2"
       d="m 22.94,18.24 a 2.44,2.44 0 0 0 -2.28,1.58 H 13 V 3.65 H 5.85 v 28.7 H 13 V 24.26 H 11.24 V 30.6 H 7.6 V 5.4 h 3.64 v 16.17 h 9.42 a 2.45,2.45 0 1 0 2.28,-3.33 z m 0,3.29 a 0.84,0.84 0 1 1 0.84,-0.84 0.85,0.85 0 0 1 -0.84,0.84 z"
       transform="translate(-5.85,-3.65)"
       id="path69" />
  </g>
</svg>
